<?xml version="1.0" encoding="UTF-8" standalone="no"?>
<!-- Created with Inkscape (http://www.inkscape.org/) -->

<svg
   xmlns:dc="http://purl.org/dc/elements/1.1/"
   xmlns:cc="http://creativecommons.org/ns#"
   xmlns:rdf="http://www.w3.org/1999/02/22-rdf-syntax-ns#"
   xmlns:svg="http://www.w3.org/2000/svg"
   xmlns="http://www.w3.org/2000/svg"
   xmlns:xlink="http://www.w3.org/1999/xlink"
   xmlns:sodipodi="http://sodipodi.sourceforge.net/DTD/sodipodi-0.dtd"
   xmlns:inkscape="http://www.inkscape.org/namespaces/inkscape"
   width="210mm"
   height="297mm"
   viewBox="0 0 210 297"
   version="1.1"
   id="svg8"
   inkscape:version="0.92.1 r15371"
   sodipodi:docname="sharkPool.svg"
   inkscape:export-filename="D:\Web Projects\Personal Site\resources\sharkPool.png"
   inkscape:export-xdpi="96"
   inkscape:export-ydpi="96">
  <defs
     id="defs2">
    <linearGradient
       inkscape:collect="always"
       id="linearGradient4644">
      <stop
         style="stop-color:#6f6f6f;stop-opacity:1"
         offset="0"
         id="stop4640" />
      <stop
         style="stop-color:#000000;stop-opacity:0.98543692"
         offset="1"
         id="stop4642" />
    </linearGradient>
    <radialGradient
       inkscape:collect="always"
       xlink:href="#linearGradient4644"
       id="radialGradient4646"
       cx="104.96726"
       cy="145.69942"
       fx="104.96726"
       fy="145.69942"
       r="125"
       gradientUnits="userSpaceOnUse"
       gradientTransform="matrix(0.85183297,0,0,0.90021432,15.552684,14.538719)" />
    <filter
       inkscape:collect="always"
       style="color-interpolation-filters:sRGB"
       id="filter5644"
       x="-0.0084"
       width="1.0168"
       y="-0.0084"
       height="1.0168">
      <feGaussianBlur
         inkscape:collect="always"
         stdDeviation="0.875"
         id="feGaussianBlur5646" />
    </filter>
  </defs>
  <sodipodi:namedview
     id="base"
     pagecolor="#ffffff"
     bordercolor="#666666"
     borderopacity="1.0"
     inkscape:pageopacity="0.0"
     inkscape:pageshadow="2"
     inkscape:zoom="0.7"
     inkscape:cx="380.74514"
     inkscape:cy="569.98169"
     inkscape:document-units="mm"
     inkscape:current-layer="layer1"
     showgrid="false"
     inkscape:window-width="1478"
     inkscape:window-height="1008"
     inkscape:window-x="-7"
     inkscape:window-y="0"
     inkscape:window-maximized="0" />
  <metadata
     id="metadata5">
    <rdf:RDF>
      <cc:Work
         rdf:about="">
        <dc:format>image/svg+xml</dc:format>
        <dc:type
           rdf:resource="http://purl.org/dc/dcmitype/StillImage" />
        <dc:title></dc:title>
      </cc:Work>
    </rdf:RDF>
  </metadata>
  <g
     inkscape:label="Layer 1"
     inkscape:groupmode="layer"
     id="layer1">
    <rect
       style="fill:url(#radialGradient4646);fill-opacity:1;stroke:none;stroke-width:5;stroke-miterlimit:4;stroke-dasharray:none;stroke-opacity:1;opacity:1;fill-rule:nonzero;filter:url(#filter5644)"
       id="rect4630"
       width="250"
       height="250"
       x="-20.032738"
       y="20.699406" />
    <text
       xml:space="preserve"
       style="font-style:normal;font-weight:normal;font-size:10.58333302px;line-height:1.25;font-family:sans-serif;letter-spacing:0px;word-spacing:0px;fill:#ffffff;fill-opacity:1;stroke:none;stroke-width:0.26458332;"
       x="-81.242653"
       y="128.40297"
       id="text3682"
       transform="rotate(-37.88993)"><tspan
         sodipodi:role="line"
         id="tspan3680"
         x="-81.242653"
         y="128.40297"
         style="font-style:normal;font-variant:normal;font-weight:normal;font-stretch:normal;font-size:21.16666603px;font-family:'Wide Latin';-inkscape-font-specification:'Wide Latin';fill:#ffffff;fill-opacity:1;stroke-width:0.26458332;">SHARK</tspan></text>
    <rect
       id="rect3692"
       width="172.12158"
       height="84.189903"
       x="-86.870071"
       y="133.09349"
       style="fill:#006500;fill-opacity:1;stroke:#2d0000;stroke-width:5;stroke-miterlimit:4;stroke-dasharray:none;stroke-opacity:1"
       transform="rotate(-38.092401)" />
    <g
       id="g4584"
       transform="rotate(-37.923357,156.14278,162.3974)">
      <g
         id="g4567">
        <path
           style="fill:#27a2c1;fill-opacity:1;stroke:none;stroke-width:0.26458332px;stroke-linecap:butt;stroke-linejoin:miter;stroke-opacity:1"
           d="m 84.018961,73.670703 c 10.384333,-0.09032 21.819769,13.569755 33.579629,23.545324 10.94539,9.284673 19.98804,15.588883 19.77795,17.372523 -1.09643,9.30841 -8.54622,14.78104 -17.10525,22.317 -11.94348,10.51586 -26.033855,16.46308 -41.9463,16.61841 l -29.32813,0.28628 -0.587268,-79.829815 z"
           id="path4525"
           inkscape:connector-curvature="0"
           sodipodi:nodetypes="sssssccs" />
        <g
           id="g4560">
          <path
             sodipodi:nodetypes="cscscsc"
             inkscape:connector-curvature="0"
             id="path4527"
             d="m 93.597169,150.488 c 0,0 -4.865949,-1.27697 -7.001842,-13.58245 -2.675984,-15.41709 1.336347,-26.99422 1.336347,-26.99422 0,0 8.309204,9.12206 15.768906,13.0962 10.76332,5.73415 26.13705,5.24418 26.13705,5.24418 0,0 -4.63761,4.86268 -17.76392,15.53407 -6.43301,5.22989 -18.476541,6.70222 -18.476541,6.70222 z"
             style="fill:#000000;fill-opacity:1;stroke:none;stroke-width:0.26458332px;stroke-linecap:butt;stroke-linejoin:miter;stroke-opacity:1" />
          <path
             style="fill:#ffffff;fill-opacity:1;stroke:none;stroke-width:0.26458332px;stroke-linecap:butt;stroke-linejoin:miter;stroke-opacity:1"
             d="m 90.450109,116.67365 -4.122052,-0.0806 c 0.29487,-2.72799 1.603617,-6.68174 1.603617,-6.68174 0,0 8.309204,9.12206 15.768906,13.0962 10.76332,5.73415 26.13705,5.2442 26.13705,5.2442 0,0 -4.38642,4.58278 -7.41524,7.00603 l -1.30557,-2.88666 -6.71523,6.62343 2.00508,-8.70001 -7.02918,5.87361 1.19102,-8.86813 -8.94451,5.99822 1.38616,-8.00229 -10.355198,5.61411 2.338382,-9.53746 -5.720475,1.74264 z"
             id="path4537"
             inkscape:connector-curvature="0"
             sodipodi:nodetypes="cccsccccccccccccc" />
          <path
             style="fill:#ffffff;fill-opacity:1;stroke:none;stroke-width:0.26458332px;stroke-linecap:butt;stroke-linejoin:miter;stroke-opacity:1"
             d="m 91.697116,152.05695 c 0,0 -3.123869,-2.81954 -5.101789,-15.1514 -2.10902,-13.14923 -0.695275,-15.32421 -0.695275,-15.32421 l 2.20901,4.21377 3.647467,-0.42547 -1.771643,9.19417 9.213409,-3.20355 -5.091791,10.46174 12.391576,-7.22069 -6.11814,11.12714 10.79583,-7.00738 -5.67947,7.85898 8.23106,-4.16445 c -4.04847,4.57478 -15.617387,7.60737 -15.617387,7.60737 z"
             id="path4539"
             inkscape:connector-curvature="0"
             sodipodi:nodetypes="csccccccccccccc" />
        </g>
      </g>
      <g
         id="g4572">
        <ellipse
           style="fill:#ffffff;fill-opacity:1;stroke:none;stroke-width:5;stroke-miterlimit:4;stroke-dasharray:none;stroke-opacity:1"
           id="path4529"
           cx="99.023354"
           cy="99.487816"
           rx="10.289877"
           ry="10.156241" />
        <circle
           style="fill:#000000;fill-opacity:1;stroke:none;stroke-width:5;stroke-miterlimit:4;stroke-dasharray:none;stroke-opacity:1"
           id="path4533"
           cx="101.16152"
           cy="101.49235"
           r="5.2117558" />
        <ellipse
           style="fill:#ffffff;fill-opacity:1;stroke:none;stroke-width:5;stroke-miterlimit:4;stroke-dasharray:none;stroke-opacity:1"
           id="path4535"
           cx="97.687012"
           cy="96.948753"
           rx="3.6081386"
           ry="3.3408689" />
      </g>
    </g>
    <g
       id="g4596"
       transform="rotate(175.82527,134.96617,118.06573)">
      <path
         sodipodi:nodetypes="csccc"
         inkscape:connector-curvature="0"
         id="rect4586"
         d="m 79.18602,116.77414 c 0,0 120.46828,-5.04913 121.95732,-3.4437 0.5893,0.63536 0,4.55194 0,4.55194 l -121.95732,0.52897 z"
         style="fill:#634000;fill-opacity:1;stroke:none;stroke-width:5;stroke-miterlimit:4;stroke-dasharray:none;stroke-opacity:1" />
      <path
         style="fill:#8a6a00;fill-opacity:1;stroke:none;stroke-width:5;stroke-miterlimit:4;stroke-dasharray:none;stroke-opacity:1"
         d="m 79.177668,118.10541 122.122682,-1.65902 c 0,0 0.0589,0.53 -0.16571,1.44434 -0.0434,0.17662 -121.957322,0.52897 -121.957322,0.52897 z"
         id="path4589"
         inkscape:connector-curvature="0"
         sodipodi:nodetypes="ccscc" />
      <path
         sodipodi:nodetypes="ccccc"
         inkscape:connector-curvature="0"
         id="path4591"
         d="m 79.186018,116.77414 -0.742413,0.28668 0.06682,1.13589 0.675595,0.21466 z"
         style="fill:#ababab;fill-opacity:1;stroke:none;stroke-width:0.26458332px;stroke-linecap:butt;stroke-linejoin:miter;stroke-opacity:1" />
    </g>
    <g
       transform="rotate(105.12773,134.9009,114.25438)"
       id="g4604">
      <path
         style="fill:#634000;fill-opacity:1;stroke:none;stroke-width:5;stroke-miterlimit:4;stroke-dasharray:none;stroke-opacity:1"
         d="m 79.18602,116.77414 c 0,0 120.46828,-5.04913 121.95732,-3.4437 0.5893,0.63536 0,4.55194 0,4.55194 l -121.95732,0.52897 z"
         id="path4598"
         inkscape:connector-curvature="0"
         sodipodi:nodetypes="csccc" />
      <path
         sodipodi:nodetypes="ccscc"
         inkscape:connector-curvature="0"
         id="path4600"
         d="m 79.177668,118.10541 122.122682,-1.65902 c 0,0 0.0589,0.53 -0.16571,1.44434 -0.0434,0.17662 -121.957322,0.52897 -121.957322,0.52897 z"
         style="fill:#8a6a00;fill-opacity:1;stroke:none;stroke-width:5;stroke-miterlimit:4;stroke-dasharray:none;stroke-opacity:1" />
      <path
         style="fill:#ababab;fill-opacity:1;stroke:none;stroke-width:0.26458332px;stroke-linecap:butt;stroke-linejoin:miter;stroke-opacity:1"
         d="m 79.186018,116.77414 -0.742413,0.28668 0.06682,1.13589 0.675595,0.21466 z"
         id="path4602"
         inkscape:connector-curvature="0"
         sodipodi:nodetypes="ccccc" />
    </g>
    <text
       xml:space="preserve"
       style="font-style:normal;font-weight:normal;font-size:10.58333302px;line-height:1.25;font-family:sans-serif;letter-spacing:0px;word-spacing:0px;fill:#000000;fill-opacity:1;stroke:none;stroke-width:0.26458332"
       x="98.273804"
       y="227.0744"
       id="text4608"><tspan
         sodipodi:role="line"
         id="tspan4606"
         x="98.273804"
         y="236.7299"
         style="stroke-width:0.26458332" /></text>
    <text
       xml:space="preserve"
       style="font-style:normal;font-weight:normal;font-size:10.58333302px;line-height:1.25;font-family:sans-serif;letter-spacing:0px;word-spacing:0px;fill:#ffffff;fill-opacity:1;stroke:none;stroke-width:0.26458332;"
       x="-91.529442"
       y="227.19443"
       id="text3682-9"
       transform="rotate(-38.878626)"><tspan
         sodipodi:role="line"
         id="tspan3680-4"
         x="-91.529442"
         y="227.19443"
         style="font-style:normal;font-variant:normal;font-weight:normal;font-stretch:normal;font-size:7.05555534px;font-family:'Wide Latin';-inkscape-font-specification:'Wide Latin';fill:#ffffff;fill-opacity:1;stroke-width:0.26458332;">Pool Finder</tspan></text>
  </g>
</svg>
